<?xml version="1.0" encoding="iso-8859-1"?>
<!-- Uploaded to: SVG Repo, www.svgrepo.com, Generator: SVG Repo Mixer Tools -->
<svg height="800px" width="800px" version="1.1" id="Layer_1" xmlns="http://www.w3.org/2000/svg" xmlns:xlink="http://www.w3.org/1999/xlink" 
	 viewBox="0 0 512 512" xml:space="preserve">
<path style="fill:#E6E6E6;" d="M391.414,283.564c25.691,0,46.514,20.823,46.514,46.503c0,25.691-20.823,46.514-46.514,46.514
	c-11.442,0-31.246-4.146-49.687-11.007c17.891,8.19,34.82,19.277,42.906,27.363c18.166,18.166,18.166,47.614,0,65.768
	c-18.154,18.166-47.602,18.166-65.768,0c-8.086-8.086-19.174-25.015-27.363-42.906c6.861,18.441,11.007,38.245,11.007,49.687
	c0,25.691-20.823,46.514-46.514,46.514c-25.68,0-46.503-20.823-46.503-46.514c0-11.442,4.135-31.246,10.996-49.687
	c-8.19,17.891-19.265,34.82-27.363,42.906c-18.154,18.166-47.602,18.166-65.768,0c-18.166-18.154-18.166-47.602,0-65.768
	c8.098-8.086,25.027-19.174,42.918-27.363c-18.441,6.861-38.245,11.007-49.698,11.007c-25.68,0-46.503-20.823-46.503-46.514
	c0-25.68,20.823-46.503,46.503-46.503c11.454,0,31.258,4.135,49.698,10.996c-17.891-8.19-34.82-19.265-42.918-27.363
	c-18.166-18.154-18.166-47.602,0-65.768c18.166-18.154,47.614-18.154,65.768,0c8.098,8.098,19.174,25.027,27.363,42.918
	c-6.861-18.441-10.996-38.245-10.996-49.698c0-25.68,20.823-46.503,46.503-46.503c15.131,0,28.566,7.216,37.053,18.395
	l40.661,24.901c16.906-7.101,37.156-3.78,50.924,9.988c18.166,18.166,18.166,47.614,0,65.768
	c-8.086,8.098-25.015,19.174-42.906,27.363C360.167,287.699,379.971,283.564,391.414,283.564z"/>
<path style="fill:#E09B2D;" d="M369.53,0.945c10.629,3.39,16.395,14.872,12.742,25.402l-47.268,137.055l-31.381-10.023
	l40.815-139.102C347.566,3.582,358.901-2.445,369.53,0.945z"/>
<polygon style="fill:#41B3E5;" points="349.252,141.513 333.709,191.44 324.958,219.56 273.782,228.414 293.048,166.54 
	305.212,127.471 "/>
<path style="fill:#E54728;" d="M324.958,219.56l-12.931,41.532l-8.212,26.378c-0.584,1.833-1.374,3.539-2.337,5.097
	c-2.692,4.375-6.723,7.64-11.362,9.438c0.057,1.695-0.16,3.425-0.71,5.131c-2.577,8.086-11.213,12.553-19.3,9.976
	s-12.553-11.225-9.976-19.311c0.55-1.707,1.374-3.241,2.405-4.593c-3.734-5.635-4.971-12.84-2.76-19.781l0.664-2.13l9.049-29.07
	l4.295-13.813L324.958,219.56z"/>
<path style="fill:#F95428;" d="M301.478,292.567c8.407,10.194,13.458,23.263,13.458,37.5c0,32.552-26.39,58.942-58.942,58.942
	s-58.942-26.39-58.942-58.942c0-32.552,26.39-58.942,58.942-58.942c1.5,0,2.978,0.057,4.444,0.172l-0.664,2.13
	c-2.211,6.941-0.974,14.146,2.76,19.781c-1.031,1.352-1.856,2.886-2.405,4.593c-2.577,8.086,1.89,16.734,9.976,19.311
	s16.723-1.89,19.3-9.976c0.55-1.707,0.767-3.436,0.71-5.131C294.754,300.207,298.786,296.942,301.478,292.567z"/>
<path style="fill:#F7B239;" d="M312.027,261.091c20.044,16.299,32.838,41.142,32.838,68.975c0,49.08-39.791,88.871-88.871,88.871
	s-88.859-39.791-88.859-88.871s39.779-88.859,88.859-88.859c4.593,0,9.094,0.344,13.493,1.019l-9.049,29.07
	c-1.466-0.115-2.944-0.172-4.444-0.172c-32.552,0-58.942,26.39-58.942,58.942s26.39,58.942,58.942,58.942
	s58.942-26.39,58.942-58.942c0-14.237-5.051-27.306-13.458-37.5c0.962-1.558,1.752-3.264,2.337-5.097L312.027,261.091z"/>
<path style="fill:#2197D8;" d="M274.755,323.567c-2.118,0-4.268-0.321-6.389-0.998c-11.083-3.532-17.225-15.424-13.693-26.507
	c0.33-1.024,0.734-2.014,1.211-2.965c-3.255-6.636-3.843-14.253-1.566-21.407l45.426-145.921l10.937,3.405l-45.439,145.959
	c-1.615,5.073-0.858,10.497,2.067,14.913c1.348,2.033,1.259,4.697-0.22,6.636c-0.668,0.875-1.175,1.843-1.508,2.877
	c-1.608,5.048,1.199,10.483,6.265,12.098c5.061,1.609,10.491-1.195,12.104-6.258c0.332-1.033,0.48-2.105,0.443-3.2
	c-0.081-2.433,1.384-4.653,3.653-5.532c3.546-1.376,6.584-3.897,8.555-7.1c0.738-1.192,1.326-2.48,1.758-3.834l45.425-145.921
	l10.937,3.405l-45.438,145.957c-0.727,2.282-1.71,4.424-2.933,6.404c-2.614,4.248-6.356,7.774-10.748,10.179
	c-0.167,1.062-0.415,2.109-0.744,3.135C292.007,317.837,283.69,323.567,274.755,323.567z"/>
<path style="fill:#F7B239;" d="M373.646,123.078l-6.684,20.945c-1.144,3.586-4.989,5.556-8.569,4.391l-65.217-21.226
	c-3.55-1.156-5.501-4.961-4.367-8.517l6.676-20.945c1.144-3.587,4.988-5.559,8.569-4.394l65.225,21.225
	C372.831,115.713,374.783,119.52,373.646,123.078z"/>
</svg>